<?xml version="1.0" standalone="no"?>
<!DOCTYPE svg PUBLIC "-//W3C//DTD SVG 20010904//EN"
 "http://www.w3.org/TR/2001/REC-SVG-20010904/DTD/svg10.dtd">
<svg version="1.0" xmlns="http://www.w3.org/2000/svg"
 width="260.000000pt" height="260.000000pt" viewBox="0 0 260.000000 260.000000"
 preserveAspectRatio="xMidYMid meet">
<metadata>
Created by potrace 1.11, written by Peter Selinger 2001-2013
</metadata>
<g transform="translate(0.000000,260.000000) scale(0.100000,-0.100000)"
fill="#000000" stroke="none">
<path d="M0 1300 l0 -1300 1300 0 1300 0 0 1300 0 1300 -1300 0 -1300 0 0
-1300z m2470 -6 c0 -352 -2 -404 -15 -404 -13 0 -15 51 -15 403 0 222 3 407 6
410 4 4 11 4 15 1 5 -3 9 -187 9 -410z m-1718 255 c29 -6 65 -18 81 -25 25
-14 27 -19 27 -79 0 -36 -2 -65 -5 -65 -3 0 -23 11 -43 25 -183 121 -433 -26
-391 -231 32 -162 247 -238 393 -139 20 14 39 25 41 25 3 0 5 -31 5 -68 l0
-68 -47 -17 c-188 -71 -411 10 -494 178 -36 74 -35 189 4 266 72 148 259 234
429 198z m885 -23 c98 -42 132 -187 59 -257 l-23 -22 43 -41 c53 -51 66 -111
40 -181 -21 -53 -81 -109 -133 -125 -21 -6 -118 -14 -215 -17 l-178 -6 0 312
c0 389 -17 362 225 357 107 -1 150 -6 182 -20z m611 -308 l2 -328 -65 0 -65 0
0 284 c0 185 4 294 11 316 12 34 57 62 94 57 19 -2 20 -10 23 -329z m-318 -3
c0 -282 -2 -325 -15 -325 -13 0 -15 42 -15 318 0 175 3 322 7 325 3 4 10 7 15
7 4 0 8 -146 8 -325z m-866 39 c3 -9 6 -94 6 -190 0 -167 -1 -174 -20 -174
-19 0 -20 7 -20 183 0 101 3 187 7 190 11 11 20 8 27 -9z m-874 -309 c0 -42
-3 -55 -15 -55 -12 0 -15 13 -15 55 0 42 3 55 15 55 12 0 15 -13 15 -55z"/>
<path d="M1350 1360 l0 -80 83 0 c136 0 177 20 177 87 0 59 -31 73 -159 73
l-101 0 0 -80z"/>
<path d="M1350 1086 l0 -96 100 0 c149 0 195 26 188 107 -5 62 -38 77 -174 81
l-114 4 0 -96z"/>
</g>
</svg>
