<?xml version="1.0" encoding="utf-8"?>
<!DOCTYPE svg PUBLIC "-//W3C//DTD SVG 1.1//EN" "http://www.w3.org/Graphics/SVG/1.1/DTD/svg11.dtd"><svg version="1.1" id="logo" xmlns="http://www.w3.org/2000/svg" xmlns:xlink="http://www.w3.org/1999/xlink" x="0px" y="0px" viewBox="0 0 240.944 104.01" enable-background="new 0 0 240.944 104.01" xml:space="preserve"> <g> <rect x="104.992" y="0.211" width="1.164" height="103.606"/> <g> <g> <polygon points="117.047,79.683 117.047,103.599 118.823,103.599 118.823,92.768 132.354,92.768 132.354,91.129 118.823,91.129 118.823,81.321 133.892,81.321 133.892,79.683 			"/> <path d="M148.811,102.404c-5.913,0-10.217-4.853-10.217-10.764v-0.068c0-5.911,4.235-10.694,10.146-10.694 c5.912,0,10.217,4.852,10.217,10.763v0.069C158.957,97.62,154.72,102.404,148.811,102.404 M148.74,104.01 c7.245,0,12.062-5.843,12.062-12.369v-0.068c0-6.526-4.75-12.301-11.991-12.301c-7.245,0-12.063,5.843-12.063,12.369v0.069 C136.748,98.235,141.498,104.01,148.74,104.01"/> <path d="M167.314,92.085V81.321h8.166c4.338,0,6.867,2.016,6.867,5.229v0.068c0,3.451-2.972,5.467-6.971,5.467H167.314z M165.538,103.6h1.776V93.69h7.825l7.619,9.909h2.256l-7.895-10.217c4.032-0.546,7.006-2.836,7.006-6.833v-0.068 c0-1.708-0.686-3.314-1.812-4.442c-1.437-1.435-3.792-2.357-6.731-2.357h-10.045V103.6z"/> <g> <path d="M198.359,103.976c5.809,0,9.806-3.656,9.806-10.523V79.682h-1.776v13.975c0,5.774-3.11,8.713-7.962,8.713 c-5.057,0-8.099-3.246-8.099-8.884V79.682h-1.776v13.975C188.552,100.354,192.618,103.976,198.359,103.976"/> </g> <polygon points="233.777,79.683 224.175,93.827 214.573,79.683 212.898,79.683 212.898,103.599 214.606,103.599 214.606,82.825 224.073,96.595 224.21,96.595 233.674,82.825 233.674,103.599 235.452,103.599 235.452,79.683 			"/> </g> <g> <g> <path fill="#E20026" d="M132.599,73.225c8.979,0,14.166-3.905,18.016-9.21l-8.513-6.064c-2.449,2.975-4.954,4.957-9.212,4.957 c-5.713,0-9.736-4.781-9.736-10.901v-0.118c0-5.947,4.023-10.844,9.736-10.844c3.907,0,6.59,1.924,8.92,4.781l8.513-6.587 c-3.615-4.957-8.979-8.454-17.315-8.454c-12.358,0-21.454,9.327-21.454,21.221v0.116 C111.553,64.306,120.939,73.225,132.599,73.225"/> </g> <polygon fill="#E20026" points="157.885,72.409 190.998,72.409 190.998,62.79 169.078,62.79 169.078,56.318 188.665,56.318 188.665,47.4 169.078,47.4 169.078,41.162 190.706,41.162 190.706,31.602 157.885,31.602 			"/> <g> <path fill="#E20026" d="M219.023,63.022c-6.237,0-10.492-5.129-10.492-11.017v-0.118c0-5.887,4.138-10.901,10.376-10.901 c6.237,0,10.437,5.072,10.437,11.019v0.116C229.344,58.009,225.203,63.022,219.023,63.022 M218.907,73.225 c12.592,0,22.037-9.501,22.037-21.219v-0.118c0-11.718-9.329-21.103-21.921-21.103s-22.036,9.501-22.036,21.221v0.116 C196.987,63.84,206.314,73.225,218.907,73.225"/> </g> </g> <g> <path d="M125.647,2.187l6.288,13.838h-12.609L125.647,2.187z M124.827,0.24l-11.139,24.087h1.845l3.042-6.696h14.111l3.041,6.696 h1.947L126.536,0.24H124.827z"/> <polygon points="141.248,0.41 141.248,24.328 143.024,24.328 143.024,13.496 156.556,13.496 156.556,11.856 143.024,11.856 143.024,2.05 158.094,2.05 158.094,0.41 			"/> <g> <path d="M164.127,12.813V2.05h8.166c4.339,0,6.867,2.016,6.867,5.228v0.068c0,3.452-2.972,5.467-6.971,5.467H164.127z M162.351,24.328h1.776v-9.909h7.824l7.62,9.909h2.253l-7.893-10.217c4.033-0.546,7.005-2.836,7.005-6.833V7.209 c0-1.708-0.682-3.313-1.81-4.442c-1.435-1.435-3.794-2.357-6.732-2.357h-10.044V24.328z"/> </g> <rect x="185.468" y="0.41" width="1.776" height="23.918"/> <g> <path d="M203.253,24.738c4.238,0,6.97-1.675,9.5-4.169l-1.196-1.162c-2.426,2.392-4.783,3.725-8.233,3.725 c-5.707,0-10.116-4.715-10.116-10.763V12.3c0-6.014,4.341-10.694,10.081-10.694c3.589,0,5.98,1.503,8.063,3.519l1.264-1.298 C210.156,1.571,207.594,0,203.323,0c-6.903,0-11.961,5.604-11.961,12.369v0.069C191.362,19.306,196.42,24.738,203.253,24.738"/> </g> <path d="M226.781,2.187l6.287,13.838h-12.61L226.781,2.187z M225.962,0.24l-11.14,24.087h1.846l3.04-6.696h14.11l3.042,6.696 h1.949L227.67,0.24H225.962z"/> </g> </g> <g> <polygon points="52.497,103.817 53.662,103.706 53.662,10.512 52.497,10.018 		"/> <polygon points="59.058,103.197 60.225,103.088 60.225,7.842 59.058,7.453 		"/> <polygon points="72.182,8.993 72.182,91.301 73.348,90.776 73.348,8.95 		"/> <polygon points="65.621,9.23 65.621,99.444 66.787,98.397 66.787,9.189 		"/> <polygon points="45.934,7.231 45.934,92.626 47.099,94.247 47.099,7.726 		"/> <polygon points="13.124,9.771 13.124,46.683 14.29,46.525 14.29,9.146 		"/> <polygon points="19.686,2.312 19.686,45.796 20.853,45.638 20.853,1.457 		"/> <polygon points="6.562,15.609 6.562,42.182 7.727,43.198 7.727,14.153 		"/> <polygon points="32.811,1.304 32.811,47.178 33.976,47.131 33.976,1.139 		"/> <polygon points="39.372,0.377 39.372,58.048 40.538,59.477 40.538,0.212 		"/> <polygon points="26.248,2.23 26.248,44.909 27.414,44.751 27.414,2.066 		"/> <polygon points="78.745,24.964 78.745,80.291 79.91,79.563 79.91,27.055 		"/> <polygon points="92.83,51.215 93.034,50.929 93.034,38.796 91.87,39.186 91.87,51.739 		"/> <polygon points="99.819,36.535 98.431,36.998 98.431,43.404 99.47,41.952 		"/> <polygon points="85.307,33.346 85.307,57.972 86.472,56.494 86.472,34.628 		"/> <polygon points="0,30.942 1.166,32.903 1.166,27.027 		"/> </g> </g> </svg>
