<?xml version="1.0" standalone="no"?>
<!DOCTYPE svg PUBLIC "-//W3C//DTD SVG 1.1//EN" "http://www.w3.org/Graphics/SVG/1.1/DTD/svg11.dtd">
<svg width="100%" height="100%" viewBox="0 0 87 31" version="1.1" xmlns="http://www.w3.org/2000/svg" xmlns:xlink="http://www.w3.org/1999/xlink" xml:space="preserve" style="fill-rule:evenodd;clip-rule:evenodd;stroke-linejoin:round;stroke-miterlimit:1.41421;">
    <g transform="matrix(1,0,0,1,-415.797,-67.7181)">
        <path d="M493.497,73.701L493.497,98.272L488.919,98.272L488.919,76.688C488.919,76.688 488.983,73.287 493.497,73.701" style="fill:rgb(12,43,90);fill-rule:nonzero;"/>
    </g>
    <g transform="matrix(1,0,0,1,-415.797,-67.7181)">
        <path d="M424.851,76.955C422.139,79.348 420.646,82.575 420.646,86.04C420.646,92.931 426.925,98.542 434.638,98.542C437.026,98.542 439.65,97.911 441.659,96.852L442.039,96.654L442.039,91.381L440.886,92.307C439.108,93.728 436.853,94.514 434.536,94.514C429.413,94.514 425.244,90.671 425.244,85.948C425.244,81.192 429.443,77.321 434.603,77.321C436.899,77.321 439.247,78.103 440.886,79.411L442.039,80.329L442.039,75.131L441.673,74.93C439.732,73.86 437.392,73.294 434.91,73.294C431.094,73.294 427.522,74.594 424.851,76.955" style="fill:rgb(12,43,90);fill-rule:nonzero;"/>
    </g>
    <g transform="matrix(1,0,0,1,-415.797,-67.7181)">
        <path d="M473.824,86.177C473.362,85.749 472.759,85.365 472.016,85.011C472.411,84.741 472.75,84.457 473.023,84.158C474.011,83.1 474.514,81.734 474.514,80.096C474.514,78.697 474.111,77.445 473.319,76.37C471.985,74.561 469.75,73.645 466.682,73.645L458.988,73.645C456.217,73.821 455.619,75.482 455.514,76.483L455.514,77.212C455.517,77.223 455.518,77.23 455.518,77.23L455.514,77.226L455.514,98.322L466.503,98.322C469.911,98.322 472.451,97.327 474.049,95.363C475.13,94.032 475.677,92.52 475.677,90.87C475.677,88.895 475.054,87.318 473.824,86.177M460.059,77.572L465.329,77.572C466.682,77.572 467.699,77.708 468.353,77.973C469.407,78.406 469.898,79.201 469.898,80.474C469.898,81.753 469.433,82.574 468.429,83.056C467.748,83.376 466.746,83.543 465.447,83.543L460.059,83.543L460.059,77.572ZM470.383,92.89C469.651,93.845 468.36,94.326 466.552,94.326L460.059,94.326L460.059,87.401L465.985,87.401C467.284,87.401 468.329,87.552 469.093,87.853C470.437,88.376 471.064,89.286 471.064,90.713C471.064,91.583 470.84,92.295 470.383,92.89" style="fill:rgb(12,43,90);fill-rule:nonzero;"/>
    </g>
    <g transform="matrix(1,0,0,1,-415.797,-67.7181)">
        <path d="M501.178,67.718C500.835,67.718 500.556,67.997 500.556,68.341L500.556,98.271L501.798,98.271L501.798,68.341C501.798,67.997 501.52,67.718 501.178,67.718" style="fill:rgb(12,43,90);fill-rule:nonzero;"/>
    </g>
    <g transform="matrix(1,0,0,1,-415.797,-67.7181)">
        <path d="M481.243,73.876C480.9,73.876 480.621,74.155 480.621,74.499L480.621,98.271L481.866,98.271L481.866,74.499C481.866,74.155 481.586,73.876 481.243,73.876" style="fill:rgb(12,43,90);fill-rule:nonzero;"/>
    </g>
    <g transform="matrix(1,0,0,1,-415.797,-67.7181)">
        <path d="M448.902,83.914C448.559,83.914 448.28,84.193 448.28,84.536L448.28,98.272L449.521,98.272L449.521,84.536C449.521,84.193 449.244,83.914 448.902,83.914" style="fill:rgb(12,43,90);fill-rule:nonzero;"/>
    </g>
    <g transform="matrix(1,0,0,1,-415.797,-67.7181)">
        <path d="M416.418,93.942C416.076,93.942 415.797,94.221 415.797,94.565L415.797,98.271L417.039,98.271L417.039,94.565C417.039,94.221 416.76,93.942 416.418,93.942" style="fill:rgb(12,43,90);fill-rule:nonzero;"/>
    </g>
</svg>
